<?xml version="1.0" encoding="UTF-8"?>
<svg width="114px" height="24px" viewBox="0 0 114 24" version="1.1" xmlns="http://www.w3.org/2000/svg" xmlns:xlink="http://www.w3.org/1999/xlink">
    <!-- Generator: Sketch 45.2 (43514) - http://www.bohemiancoding.com/sketch -->
    <title>logo</title>
    <desc>Created with Sketch.</desc>
    <defs></defs>
    <g id="Page-1" stroke="none" stroke-width="1" fill="none" fill-rule="evenodd">
        <g id="Desktop" transform="translate(-583.000000, -80.000000)">
            <g id="logo" transform="translate(583.000000, 80.000000)">
                <g id="Group">
                    <path d="M3.0375,7.065 L6.1425,7.065 L5.94,8.505 L5.985,8.505 C6.13500075,8.30999902 6.33749872,8.11125101 6.5925,7.90875 C6.84750127,7.70624899 7.12874846,7.52250082 7.43625,7.3575 C7.74375154,7.19249917 8.0774982,7.05750052 8.4375,6.9525 C8.7975018,6.84749947 9.17249805,6.795 9.5625,6.795 C10.372504,6.795 11.0887469,6.93374861 11.71125,7.21125 C12.3337531,7.48875139 12.847498,7.87874749 13.2525,8.38125 C13.657502,8.88375251 13.9387492,9.47999655 14.09625,10.17 C14.2537508,10.8600034 14.2725006,11.6174959 14.1525,12.4425 C14.0474995,13.2075038 13.8300016,13.9387465 13.5,14.63625 C13.1699983,15.3337535 12.7537525,15.9524973 12.25125,16.4925 C11.7487475,17.0325027 11.1675033,17.4637484 10.5075,17.78625 C9.8474967,18.1087516 9.1275039,18.27 8.3475,18.27 C7.64249647,18.27 6.99750292,18.1612511 6.4125,17.94375 C5.82749707,17.7262489 5.3850015,17.3550026 5.085,16.83 L5.04,16.83 L4.14,23.13 L0.765,23.13 L3.0375,7.065 Z M5.3775,12.5325 C5.2574994,13.3575041 5.39624801,14.0249974 5.79375,14.535 C6.19125199,15.0450025 6.81749572,15.3 7.6725,15.3 C8.52750427,15.3 9.22874726,15.0450025 9.77625,14.535 C10.3237527,14.0249974 10.6574994,13.3575041 10.7775,12.5325 C10.8975006,11.7074959 10.755002,11.0400025 10.35,10.53 C9.94499797,10.0199974 9.31500427,9.765 8.46,9.765 C7.60499572,9.765 6.9075027,10.0199974 6.3675,10.53 C5.8274973,11.0400025 5.4975006,11.7074959 5.3775,12.5325 Z M22.41,16.6275 L22.365,16.6275 C21.9149977,17.2125029 21.3600033,17.6324987 20.7,17.8875 C20.0399967,18.1425013 19.3650034,18.27 18.675,18.27 C18.1649974,18.27 17.6850022,18.1987507 17.235,18.05625 C16.7849977,17.9137493 16.3987516,17.7000014 16.07625,17.415 C15.7537484,17.1299986 15.5175007,16.7775021 15.3675,16.3575 C15.2174992,15.9374979 15.1799996,15.4500028 15.255,14.895 C15.3900007,13.9499953 15.7462471,13.2187526 16.32375,12.70125 C16.9012529,12.1837474 17.5837461,11.8012512 18.37125,11.55375 C19.1587539,11.3062488 19.9837457,11.1600002 20.84625,11.115 C21.7087543,11.0699998 22.4924965,11.0475 23.1975,11.0475 C23.2725004,10.447497 23.1225019,9.97125176 22.7475,9.61875 C22.3724981,9.26624824 21.8925029,9.09 21.3075,9.09 C20.7524972,9.09 20.2312524,9.20624884 19.74375,9.43875 C19.2562476,9.67125116 18.8025021,9.98999797 18.3825,10.395 L16.8525,8.55 C17.5575035,7.96499707 18.3487456,7.52625146 19.22625,7.23375 C20.1037544,6.94124854 20.9924955,6.795 21.8925,6.795 C22.8825049,6.795 23.681247,6.91874876 24.28875,7.16625 C24.896253,7.41375124 25.3574984,7.7774976 25.6725,8.2575 C25.9875016,8.7375024 26.1712497,9.32624651 26.22375,10.02375 C26.2762503,10.7212535 26.2350007,11.5274954 26.1,12.4425 L25.335,18 L22.23,18 L22.41,16.6275 Z M22.05,13.2075 C21.7949987,13.2075 21.4762519,13.2187499 21.09375,13.24125 C20.7112481,13.2637501 20.3362518,13.3274995 19.96875,13.4325 C19.6012482,13.5375005 19.2787514,13.6949989 19.00125,13.905 C18.7237486,14.115001 18.5625002,14.4074981 18.5175,14.7825 C18.4874998,14.992501 18.5099996,15.1687493 18.585,15.31125 C18.6600004,15.4537507 18.7649993,15.5774995 18.9,15.6825 C19.0350007,15.7875005 19.1962491,15.8624998 19.38375,15.9075 C19.5712509,15.9525002 19.7549991,15.975 19.935,15.975 C20.2650016,15.975 20.5912484,15.9300004 20.91375,15.84 C21.2362516,15.7499995 21.5287487,15.6225008 21.79125,15.4575 C22.0537513,15.2924992 22.2749991,15.0825013 22.455,14.8275 C22.6350009,14.5724987 22.7474998,14.2725017 22.7925,13.9275 L22.8825,13.2075 L22.05,13.2075 Z M29.88,0.99 L33.255,0.99 L30.87,18 L27.495,18 L29.88,0.99 Z M34.83,7.065 L38.07,7.065 L37.8675,8.55 L37.9125,8.55 C38.0475007,8.33999895 38.2274989,8.13000105 38.4525,7.92 C38.6775011,7.70999895 38.9324986,7.52250082 39.2175,7.3575 C39.5025014,7.19249917 39.8249982,7.05750052 40.185,6.9525 C40.5450018,6.84749947 40.927498,6.795 41.3325,6.795 C42.0975038,6.795 42.7574972,6.95249842 43.3125,7.2675 C43.8675028,7.58250157 44.242499,8.07749662 44.4375,8.7525 C44.9325025,8.04749647 45.476247,7.5450015 46.06875,7.245 C46.661253,6.9449985 47.3624959,6.795 48.1725,6.795 C48.9075037,6.795 49.5074977,6.91874876 49.9725,7.16625 C50.4375023,7.41375124 50.7899988,7.75124786 51.03,8.17875 C51.2700012,8.60625214 51.4124998,9.10874711 51.4575,9.68625 C51.5025002,10.2637529 51.4800004,10.8824967 51.39,11.5425 L50.49,18 L47.115,18 L47.9925,11.6325 C48.0675004,11.1224974 48.0225008,10.6837518 47.8575,10.31625 C47.6924992,9.94874816 47.3325028,9.765 46.7775,9.765 C46.387498,9.765 46.0537514,9.82874936 45.77625,9.95625 C45.4987486,10.0837506 45.262501,10.2599989 45.0675,10.485 C44.872499,10.7100011 44.7225005,10.9724985 44.6175,11.2725 C44.5124995,11.5725015 44.4375002,11.8874983 44.3925,12.2175 L43.5825,18 L40.2075,18 L41.0175,12.2175 C41.0475001,12.022499 41.0737499,11.7825014 41.09625,11.4975 C41.1187501,11.2124986 41.1037503,10.9425013 41.05125,10.6875 C40.9987497,10.4324987 40.8825009,10.2150009 40.7025,10.035 C40.5224991,9.8549991 40.2375019,9.765 39.8475,9.765 C39.4124978,9.765 39.0487515,9.84374921 38.75625,10.00125 C38.4637485,10.1587508 38.2275009,10.3687487 38.0475,10.63125 C37.8674991,10.8937513 37.7325004,11.1899983 37.6425,11.52 C37.5524995,11.8500016 37.4850002,12.1949982 37.44,12.555 L36.675,18 L33.3,18 L34.83,7.065 Z" id="palm" fill="#4F4F4F"></path>
                    <path d="M54.45,9.81 C54.5100003,9.41999805 54.5549998,9.03000195 54.585,8.64 L54.675,7.47 L56.2725,7.47 L56.0475,9.0675 L56.0925,9.0675 C56.3175011,8.7674985 56.5724986,8.50125116 56.8575,8.26875 C57.1425014,8.03624884 57.4462484,7.84125079 57.76875,7.68375 C58.0912516,7.52624921 58.4212483,7.40625041 58.75875,7.32375 C59.0962517,7.24124959 59.4224984,7.2 59.7375,7.2 C60.0225014,7.2 60.3224984,7.2299997 60.6375,7.29 C60.9525016,7.3500003 61.2487486,7.45874921 61.52625,7.61625 C61.8037514,7.77375079 62.0549989,7.99499858 62.28,8.28 C62.5050011,8.56500143 62.6774994,8.93249775 62.7975,9.3825 C62.992501,9.05249835 63.2324986,8.75250135 63.5175,8.4825 C63.8025014,8.21249865 64.1099983,7.98000098 64.44,7.785 C64.7700016,7.58999903 65.1149982,7.44375049 65.475,7.34625 C65.8350018,7.24874951 66.1949982,7.2 66.555,7.2 C67.9050067,7.2 68.8537473,7.55624644 69.40125,8.26875 C69.9487527,8.98125356 70.1325009,9.9974934 69.9525,11.3175 L69.0075,18 L67.5225,18 L68.3775,11.8575 C68.4525004,11.3174973 68.4787501,10.845002 68.45625,10.44 C68.4337499,10.034998 68.3400008,9.69000143 68.175,9.405 C68.0099992,9.11999858 67.7662516,8.90625071 67.44375,8.76375 C67.1212484,8.62124929 66.7050025,8.55 66.195,8.55 C65.6399972,8.55 65.160002,8.65874891 64.755,8.87625 C64.349998,9.09375109 64.0050014,9.3824982 63.72,9.7425 C63.4349986,10.1025018 63.2062509,10.5112477 63.03375,10.96875 C62.8612491,11.4262523 62.7450003,11.9024975 62.685,12.3975 L61.8975,18 L60.4125,18 L61.2675,11.8575 C61.3425004,11.3174973 61.3687501,10.845002 61.34625,10.44 C61.3237499,10.034998 61.2300008,9.69000143 61.065,9.405 C60.8999992,9.11999858 60.6562516,8.90625071 60.33375,8.76375 C60.0112484,8.62124929 59.5950025,8.55 59.085,8.55 C58.9949995,8.55 58.7850016,8.5799997 58.455,8.64 C58.1249983,8.7000003 57.7687519,8.86499865 57.38625,9.135 C57.0037481,9.40500135 56.6362518,9.8099973 56.28375,10.35 C55.9312482,10.8900027 55.6875007,11.6399952 55.5525,12.6 L54.7875,18 L53.3025,18 L54.45,9.81 Z M81.5175,11.925 C81.6525007,10.919995 81.4650026,10.1062531 80.955,9.48375 C80.4449975,8.86124689 79.6500054,8.55 78.57,8.55 C78.0899976,8.55 77.6137524,8.64374906 77.14125,8.83125 C76.6687476,9.01875094 76.2412519,9.26999842 75.85875,9.585 C75.4762481,9.90000157 75.1537513,10.259998 74.89125,10.665 C74.6287487,11.070002 74.4675003,11.4899978 74.4075,11.925 L81.5175,11.925 Z M74.1825,13.14 C74.1524999,13.6650026 74.2124993,14.1599977 74.3625,14.625 C74.5125008,15.0900023 74.7337485,15.4912483 75.02625,15.82875 C75.3187515,16.1662517 75.6787479,16.432499 76.10625,16.6275 C76.5337521,16.822501 77.0099974,16.92 77.535,16.92 C78.330004,16.92 79.0424969,16.7362518 79.6725,16.36875 C80.3025032,16.0012482 80.7974982,15.5775024 81.1575,15.0975 L82.17,16.0425 C81.4349963,16.837504 80.6625041,17.4074983 79.8525,17.7525 C79.042496,18.0975017 78.2025044,18.27 77.3325,18.27 C76.5524961,18.27 75.8512531,18.1312514 75.22875,17.85375 C74.6062469,17.5762486 74.0850021,17.1900025 73.665,16.695 C73.2449979,16.1999975 72.9450009,15.6150034 72.765,14.94 C72.5849991,14.2649966 72.5549994,13.530004 72.675,12.735 C72.7800005,11.939996 73.0162482,11.2050034 73.38375,10.53 C73.7512518,9.85499663 74.2087473,9.27000248 74.75625,8.775 C75.3037527,8.27999753 75.9187466,7.89375139 76.60125,7.61625 C77.2837534,7.33874861 77.9999963,7.2 78.75,7.2 C79.545004,7.2 80.238747,7.34249858 80.83125,7.6275 C81.423753,7.91250143 81.8999982,8.29124764 82.26,8.76375 C82.6200018,9.23625236 82.8712493,9.79124681 83.01375,10.42875 C83.1562507,11.0662532 83.1750005,11.7449964 83.07,12.465 L82.9575,13.14 L74.1825,13.14 Z M86.625,12.735 C86.5349996,13.3200029 86.5462494,13.8674974 86.65875,14.3775 C86.7712506,14.8875025 86.9737485,15.3299981 87.26625,15.705 C87.5587515,16.0800019 87.9374977,16.3762489 88.4025,16.59375 C88.8675023,16.8112511 89.4074969,16.92 90.0225,16.92 C90.622503,16.92 91.1962473,16.8112511 91.74375,16.59375 C92.2912527,16.3762489 92.7787479,16.0800019 93.20625,15.705 C93.6337521,15.3299981 93.9862486,14.8875025 94.26375,14.3775 C94.5412514,13.8674974 94.7249996,13.3200029 94.815,12.735 C94.9050005,12.1499971 94.8787507,11.6025025 94.73625,11.0925 C94.5937493,10.5824974 94.3612516,10.1400019 94.03875,9.765 C93.7162484,9.38999812 93.3112524,9.09375109 92.82375,8.87625 C92.3362476,8.65874891 91.792503,8.55 91.1925,8.55 C90.5774969,8.55 90.0112526,8.65874891 89.49375,8.87625 C88.9762474,9.09375109 88.518752,9.38999812 88.12125,9.765 C87.723748,10.1400019 87.3975013,10.5824974 87.1425,11.0925 C86.8874987,11.6025025 86.7150005,12.1499971 86.625,12.735 Z M95.49,18 L94.005,18 L94.2525,16.245 L94.2075,16.245 C93.9074985,16.6050018 93.5775018,16.9124987 93.2175,17.1675 C92.8574982,17.4225013 92.4825019,17.6324992 92.0925,17.7975 C91.702498,17.9625008 91.3125019,18.0824996 90.9225,18.1575 C90.532498,18.2325004 90.1650017,18.27 89.82,18.27 C88.9949959,18.27 88.2600032,18.1312514 87.615,17.85375 C86.9699968,17.5762486 86.4337521,17.1900025 86.00625,16.695 C85.5787479,16.1999975 85.2750009,15.6150034 85.095,14.94 C84.9149991,14.2649966 84.8849994,13.530004 85.005,12.735 C85.1100005,11.939996 85.3499981,11.2050034 85.725,10.53 C86.1000019,9.85499662 86.5687472,9.27000247 87.13125,8.775 C87.6937528,8.27999752 88.3349964,7.89375139 89.055,7.61625 C89.7750036,7.33874861 90.5474959,7.2 91.3725,7.2 C91.7175017,7.2 92.0774981,7.23749962 92.4525,7.3125 C92.8275019,7.38750037 93.1837483,7.50749917 93.52125,7.6725 C93.8587517,7.83750082 94.1737485,8.04749872 94.46625,8.3025 C94.7587515,8.55750127 95.002499,8.8649982 95.1975,9.225 L95.2425,9.225 L96.39,0.99 L97.875,0.99 L95.49,18 Z M102.9375,3.42 C102.8925,3.73500158 102.742501,3.99374899 102.4875,4.19625 C102.232499,4.39875101 101.970001,4.5 101.7,4.5 C101.429999,4.5 101.197501,4.39875101 101.0025,4.19625 C100.807499,3.99374899 100.7325,3.73500158 100.7775,3.42 C100.8225,3.10499842 100.972499,2.84625101 101.2275,2.64375 C101.482501,2.44124899 101.744999,2.34 102.015,2.34 C102.285001,2.34 102.517499,2.44124899 102.7125,2.64375 C102.907501,2.84625101 102.9825,3.10499842 102.9375,3.42 Z M100.5525,18 L99.0675,18 L100.5525,7.47 L102.0375,7.47 L100.5525,18 Z M110.8575,12.7575 C110.482498,12.7575 110.013753,12.7762498 109.45125,12.81375 C108.888747,12.8512502 108.337503,12.9412493 107.7975,13.08375 C107.257497,13.2262507 106.781252,13.4474985 106.36875,13.7475 C105.956248,14.0475015 105.7125,14.4599974 105.6375,14.985 C105.5925,15.3300017 105.622499,15.6262488 105.7275,15.87375 C105.832501,16.1212512 105.993749,16.3237492 106.21125,16.48125 C106.428751,16.6387508 106.679999,16.7512497 106.965,16.81875 C107.250001,16.8862503 107.542499,16.92 107.8425,16.92 C108.382503,16.92 108.866248,16.8300009 109.29375,16.65 C109.721252,16.4699991 110.084999,16.2262515 110.385,15.91875 C110.685002,15.6112485 110.928749,15.2512521 111.11625,14.83875 C111.303751,14.4262479 111.435,13.9875023 111.51,13.5225 L111.6225,12.7575 L110.8575,12.7575 Z M111.78,11.5425 L111.825,11.2725 C112.065001,9.45749093 111.292509,8.55 109.5075,8.55 C108.277494,8.55 107.145005,8.96249588 106.11,9.7875 L105.3675,8.73 C105.922503,8.23499753 106.589996,7.85625131 107.37,7.59375 C108.150004,7.33124869 109.034995,7.2 110.025,7.2 C110.535003,7.2 111.014998,7.27499925 111.465,7.425 C111.915002,7.57500075 112.293748,7.80374846 112.60125,8.11125 C112.908752,8.41875154 113.133749,8.80499768 113.27625,9.27 C113.418751,9.73500233 113.445,10.2899968 113.355,10.935 L112.7025,15.6375 C112.6425,16.042502 112.60125,16.4662478 112.57875,16.90875 C112.55625,17.3512522 112.545,17.7149986 112.545,18 L111.105,18 C111.09,17.7449987 111.09375,17.4675015 111.11625,17.1675 C111.13875,16.8674985 111.1725,16.5750014 111.2175,16.29 L111.1725,16.29 C110.647497,16.9950035 110.062503,17.5012485 109.4175,17.80875 C108.772497,18.1162515 108.022504,18.27 107.1675,18.27 C106.702498,18.27 106.260002,18.2062506 105.84,18.07875 C105.419998,17.9512494 105.063751,17.7562513 104.77125,17.49375 C104.478749,17.2312487 104.257501,16.9087519 104.1075,16.52625 C103.957499,16.1437481 103.92,15.6975026 103.995,15.1875 C104.115001,14.3324957 104.429997,13.6612524 104.94,13.17375 C105.450003,12.6862476 106.053747,12.3225012 106.75125,12.0825 C107.448753,11.8424988 108.179996,11.6925003 108.945,11.6325 C109.710004,11.5724997 110.407497,11.5425 111.0375,11.5425 L111.78,11.5425 Z" id="media" fill="#9D9D9D"></path>
                </g>
            </g>
        </g>
    </g>
</svg>